<?xml version="1.0" encoding="UTF-8" standalone="no"?>
<!-- Created with Inkscape (http://www.inkscape.org/) -->

<svg
   width="210mm"
   height="210mm"
   viewBox="0 0 210 210"
   version="1.1"
   id="svg1"
   xml:space="preserve"
   xmlns="http://www.w3.org/2000/svg"
   xmlns:svg="http://www.w3.org/2000/svg"><defs
     id="defs1" /><g
     id="layer1"><rect
       style="fill:#5f48bb;fill-opacity:1;stroke-width:1.69567"
       id="rect1"
       width="210"
       height="210"
       x="0"
       y="0" /><path
       style="fill:#e1e1e1;fill-opacity:1;stroke-width:1.01945"
       d="m 103.89923,203.34931 c -0.61201,-0.3037 -1.25347,-0.8939 -1.42545,-1.31155 -0.17198,-0.41764 -0.49953,-12.66543 -0.72788,-27.2173 -0.22835,-14.55188 -0.42863,-28.98196 -0.44507,-32.06685 l -0.0299,-5.6089 -2.978621,-1.5048 c -3.008907,-1.52011 -5.02122,-2.52533 -7.870436,-3.88896 -1.851821,-0.86822 -5.050423,-2.28112 -7.108003,-3.13976 -5.587494,-2.00094 -10.827806,-4.5249 -16.540852,-6.11502 -3.659526,-0.99836 -7.913886,-2.12835 -9.454131,-2.51113 l -2.800445,-0.69597 -0.3171,3.75428 c -0.174406,2.06487 -0.34269,10.51587 -0.373966,18.77997 -0.03127,8.26414 -0.199626,17.92423 -0.374106,21.46687 l -0.31724,6.44116 -1.995228,0.69254 c -1.097376,0.3809 -2.528418,0.55986 -3.180095,0.3977 l -1.184865,-0.29483 0.314839,-24.56071 c 0.173161,-13.5084 0.452408,-31.09323 0.620549,-39.07741 l 0.305678,-14.516698 -1.509084,-0.786688 c 0.236279,0.123173 -2.355164,-1.285988 -3.529316,-1.986514 -1.464354,-0.903398 -1.983822,-1.059833 -2.258574,-2.52556 -0.224968,-1.200135 -0.06767,-2.321436 0.489778,-3.491352 0.526378,-1.104715 1.471508,-2.007158 2.63268,-2.513774 0.996326,-0.434698 9.892178,-2.304152 19.768561,-4.154351 20.410422,-3.823602 19.37354,-4.183771 23.18473,-4.91194 3.747862,-0.716083 5.946756,-0.834632 10.599655,-0.571464 l 5.870792,0.332056 0.16451,-9.498974 c 0.10381,-5.994214 0.27047,-7.77895 0.3343,-9.498978 0.0523,-1.408137 0.49881,-3.891936 0.49881,-10.67739 V 31.409624 l -1.79178,-0.295898 c -0.14735,-0.02434 -1.66682,-0.599323 -1.90342,-0.763129 -0.31059,-0.14709 -1.337985,-0.715577 -2.789296,-1.520494 C 96.333438,28.02825 94.278,26.923354 93.351813,26.084466 92.425627,25.24558 91.2255,23.579169 90.684869,22.381331 c -0.73573,-1.630097 -0.900946,-2.725294 -0.656862,-4.354259 0.231974,-1.548156 0.713832,-2.466984 1.669331,-3.183154 0.738772,-0.55373 1.594311,-1.199873 2.004667,-1.357618 0.431259,-0.165779 3.321928,-0.896042 6.687375,-1.157971 3.36544,-0.261927 15.20974,-0.483491 26.32067,-0.492362 11.11094,-0.0089 24.69097,0.240659 30.17785,0.554516 5.48688,0.313858 10.05097,0.765305 10.1424,1.003219 0.0914,0.237912 0.5802,0.432569 1.08614,0.432569 0.50589,0 1.38503,0.591902 1.95365,1.315339 0.71482,0.9095 1.0338,2.043683 1.0338,3.675914 0,1.298317 -0.22299,3.570614 -0.49552,5.049549 -0.27257,1.478934 -0.88829,3.587543 -1.36829,4.685799 -0.48,1.098254 -1.32321,2.385325 -1.87378,2.860155 -0.5506,0.474831 -1.71956,1.133742 -2.59772,1.464246 l -1.59664,0.600916 -0.27165,2.529408 c -0.14941,1.391176 -0.88831,11.515133 -1.642,22.497679 -0.75369,10.982549 -1.35472,22.327025 -1.33565,25.20995 0.0192,2.882913 0.53753,21.599464 1.1521,41.592334 0.86535,28.1508 0.98359,36.51205 0.52414,37.06611 -0.32629,0.39349 -1.32392,0.71542 -2.21694,0.71542 -0.89303,0 -1.87646,-0.30481 -2.18539,-0.67736 -0.37125,-0.44768 -0.72781,-6.66877 -1.0515,-18.34585 -0.26936,-9.71767 -0.493,-18.27265 -0.49696,-19.01109 l -0.006,-1.34261 -4.36456,-1.30367 c -2.40052,-0.71702 -6.16737,-2.02948 -8.35501,-2.95547 -4.05461,-1.71624 -8.61204,-3.37688 -12.84429,-4.79131 -2.22477,-0.74352 -6.13534,-1.51046 -8.60443,-1.99733 -2.46909,-0.48685 -5.77762,-1.0378 -7.35227,-1.22429 -1.57463,-0.18649 -3.34849,-0.18486 -3.94189,0.004 l -1.07889,0.34272 0.3617,44.60263 0.36171,44.60261 -1.54978,1.51618 c -0.85238,0.8339 -1.93487,1.48861 -2.40551,1.45489 -0.47065,-0.0337 -1.35645,-0.30977 -1.96847,-0.61346 z m -3.1271,-87.61518 c 0,-4.08013 -0.14008,-8.44125 -0.31129,-9.69135 l -0.3113,-2.27292 -3.554457,0.26622 c -2.314311,0.17333 -6.339012,-0.11744 -11.535383,-0.83344 -4.389503,-0.60479 -9.809082,-1.6426 -12.043509,-2.30622 -3.966126,-0.83161 -7.699309,-2.280239 -11.51694,-3.649429 -3.009412,-1.087667 -5.831537,-1.550797 -6.110387,-1.550797 -0.303036,0 -0.507003,1.679025 -0.507003,4.173567 0,2.295469 0.139082,5.189109 0.309073,6.430319 l 0.309071,2.25673 3.556683,1.08627 c 1.956177,0.59746 7.412485,2.10138 12.03641,3.63226 5.067222,1.67764 5.169478,1.983 18.954676,6.5104 5.486879,1.80201 10.144496,3.29675 10.350256,3.32161 0.20574,0.0248 0.3741,-3.29308 0.3741,-7.37322 z m 53.36067,-10.9116 c -0.36195,-3.90382 -0.78794,-7.305252 -0.94669,-7.558727 -0.17362,-0.27724 -1.48111,-0.287944 -3.28146,-0.02694 -1.64608,0.238702 -4.19828,0.594094 -5.61159,1.023981 -3.6319,1.104717 -7.23923,2.366316 -10.84906,3.744666 -2.46909,0.95951 -5.10652,1.98145 -5.86098,2.271 -0.75445,0.28954 -1.37172,0.68558 -1.37172,0.88007 0,0.19451 1.88877,0.59933 4.11518,1.23786 5.67444,1.62743 1.13017,0.26735 13.84188,3.90023 5.02784,1.43691 9.80206,2.1816 10.47495,2.3183 0.15188,0.0309 0.64625,-0.0905 0.34362,-0.29245 -0.37118,-1.65849 -0.15924,-0.003 -0.85413,-7.49801 z m -2.43951,-21.610139 1.78867,-0.497265 0.6626,-10.981707 c 0.36442,-6.039941 0.88469,-10.321543 0.99164,-10.981709 0.0295,-0.181415 0.60186,-4.324381 0.93533,-9.60973 0.33347,-5.285351 0.74499,-11.159085 0.91451,-13.052739 l 0.30821,-3.443008 -3.196,0.365401 c -1.7578,0.200971 -8.05183,0.344194 -13.98675,0.318277 -7.57565,-0.03308 -13.14888,-0.344932 -18.70527,-1.046638 -4.35299,-0.549731 -8.73251,-1.192535 -9.7323,-1.428451 l -1.81777,-0.428942 -0.29457,6.799614 c -0.16202,3.73979 -0.42063,12.752658 -0.57471,20.028593 -0.15406,7.275947 -0.10133,13.474223 0.11714,13.773949 0.21847,0.299729 4.54981,1.2764 9.62517,2.170376 5.07535,0.893975 13.91754,2.50205 19.64928,3.573493 5.73173,1.071445 10.50158,1.948075 10.59965,1.948075 0.0981,0 0.17832,0.673932 0.17832,1.497622 0,0.82369 0.16834,1.49637 0.37409,1.494837 0.20577,-0.001 1.17901,-0.226554 2.16276,-0.500048 z"
       id="path1" /></g></svg>
